<svg xmlns="http://www.w3.org/2000/svg" data-name="Capa 1" viewBox="0 0 200 250" x="0px" y="0px"><title>icons</title><path xmlns="http://www.w3.org/2000/svg" fill="white" d="M160,150H41.85A15.89,15.89,0,0,1,26,134.13V65.87A15.89,15.89,0,0,1,41.85,50H160a15.89,15.89,0,0,1,15.87,15.87v68.26A15.89,15.89,0,0,1,160,150ZM41.85,55A10.88,10.88,0,0,0,31,65.87v68.26A10.88,10.88,0,0,0,41.85,145H160a10.88,10.88,0,0,0,10.87-10.87V65.87A10.88,10.88,0,0,0,160,55Z"/><path fill="white" d="M100.52,114.5A2.48,2.48,0,0,1,99,114L39.51,68a2.5,2.5,0,1,1,3.06-4L102,110a2.5,2.5,0,0,1-1.53,4.48Z"/><path fill="white" d="M100.52,114.5A2.5,2.5,0,0,1,99,110l59.48-46a2.5,2.5,0,1,1,3.06,4L102,114A2.49,2.49,0,0,1,100.52,114.5Z"/></svg>