<?xml version="1.0" encoding="utf-8"?>
<!-- Generator: Adobe Illustrator 17.0.0, SVG Export Plug-In . SVG Version: 6.00 Build 0)  -->
<!DOCTYPE svg PUBLIC "-//W3C//DTD SVG 1.1//EN" "http://www.w3.org/Graphics/SVG/1.1/DTD/svg11.dtd">
<svg version="1.1" id="Capa_1" xmlns="http://www.w3.org/2000/svg" xmlns:xlink="http://www.w3.org/1999/xlink" x="0px" y="0px"
	 width="418.193px" height="250.066px" viewBox="0 0 418.193 250.066" enable-background="new 0 0 418.193 250.066"
	 xml:space="preserve">
<g>
	<g>
		<g>
			<path fill="#E40D1E" d="M202.762,91.602c2.239-0.283,4.505-0.63,6.766-0.989c2.259-0.377,4.512-0.773,6.715-1.221
				c2.204-0.441,4.361-0.915,6.426-1.429c4.129-1.014,7.911-2.164,10.922-3.351c1.503-0.592,2.812-1.189,3.839-1.752
				c1.029-0.555,1.762-1.1,2.102-1.453c0.11-0.093,0.133-0.16,0.182-0.222c0.065-0.071,0.028-0.103,0.03-0.133
				c0.018-0.04-0.049-0.03-0.094-0.015c-0.022,0.007-0.041,0.015-0.058,0.024c-0.03,0.017-0.079,0.05-0.111,0.076
				c-0.073,0.058-0.114,0.105-0.173,0.168c-0.079,0.081-0.136,0.156-0.178,0.218c-0.083,0.125-0.112,0.194-0.112,0.194l11.155,2.602
				c0,0-0.087,0.185-0.284,0.535c-0.099,0.174-0.227,0.389-0.39,0.636c-0.159,0.222-0.341,0.442-0.561,0.702
				c-0.108,0.125-0.231,0.269-0.352,0.392c-0.118,0.11-0.242,0.225-0.372,0.346c-0.264,0.241-0.565,0.502-0.848,0.694
				c-0.291,0.209-0.626,0.45-0.93,0.619c-0.311,0.186-0.658,0.399-0.98,0.553c-1.341,0.691-2.805,1.21-4.377,1.695
				c-1.574,0.478-3.27,0.902-5.085,1.305c-3.625,0.804-7.723,1.53-12.084,2.264c-2.172,0.356-4.416,0.724-6.697,1.097
				c-2.27,0.363-4.576,0.732-6.882,1.102c-2.299,0.374-4.599,0.748-6.862,1.116c-2.262,0.364-4.485,0.747-6.637,1.115
				c-4.302,0.74-8.314,1.479-11.753,2.16c-1.719,0.343-3.296,0.665-4.694,0.964c-1.398,0.295-2.617,0.58-3.623,0.807
				c-1.007,0.219-1.798,0.428-2.341,0.554c-0.549,0.137-0.842,0.21-0.842,0.21S185.517,94.715,202.762,91.602z"/>
			<path fill="#E40D1E" d="M210.993,170.003c0,0-0.12,0.106-0.351,0.311c-0.234,0.193-0.581,0.479-1.034,0.853
				c-0.457,0.358-1.014,0.798-1.689,1.272c-0.688,0.461-1.49,0.975-2.407,1.525c-0.917,0.536-1.947,1.05-3.085,1.609
				c-1.159,0.479-2.406,1.042-3.811,1.438c-2.78,0.831-6.118,1.485-10.009,0.709c-1.925-0.474-4.027-1.341-5.849-3.043
				c-0.223-0.218-0.446-0.436-0.671-0.655c-0.226-0.217-0.406-0.491-0.61-0.741c-0.195-0.259-0.39-0.52-0.587-0.781
				c-0.197-0.262-0.339-0.561-0.509-0.846c-0.157-0.294-0.315-0.588-0.473-0.884c-0.154-0.298-0.258-0.613-0.386-0.924l-0.359-0.945
				c-0.113-0.318-0.183-0.639-0.274-0.962c-0.689-2.597-0.824-5.25-0.692-7.806c0.123-2.569,0.546-5.05,1.091-7.495
				c0.541-2.448,1.21-4.849,1.985-7.215c0.756-2.377,1.611-4.713,2.487-7.049c1.788-4.652,3.705-9.267,5.633-13.847
				c1.927-4.58,3.841-9.142,5.783-13.589c1.939-4.432,3.847-8.793,5.694-13.014c3.682-8.412,7.008-16.261,9.512-22.998
				c1.256-3.364,2.31-6.446,3.109-9.15c0.81-2.701,1.367-5.02,1.694-6.844c0.322-1.819,0.408-3.124,0.426-3.932
				c0.016-0.413-0.022-0.665-0.019-0.864c-0.004-0.19-0.007-0.288-0.007-0.288l10.304-1.509c0,0-0.01,0.202-0.029,0.593
				c-0.028,0.382-0.037,0.99-0.121,1.705c-0.152,1.448-0.497,3.458-1.082,5.817c-0.6,2.349-1.454,5.047-2.53,8.017
				c-1.085,2.968-2.388,6.21-3.873,9.674c-1.495,3.46-3.15,7.149-4.936,11.01c-1.797,3.832-3.692,7.874-5.653,12.055
				c-1.97,4.156-3.985,8.445-5.981,12.811c-1.997,4.365-4.013,8.789-5.852,13.267c-1.844,4.475-3.501,9.004-4.886,13.473
				c-0.694,2.23-1.335,4.445-1.866,6.616c-0.287,1.088-0.503,2.158-0.756,3.219c-0.206,1.053-0.437,2.103-0.588,3.12
				c-0.698,4.068-0.875,7.883-0.25,10.363c0.039,0.152,0.059,0.325,0.107,0.463l0.147,0.404c0.051,0.13,0.079,0.286,0.141,0.4
				c0.062,0.113,0.122,0.227,0.178,0.344c0.059,0.112,0.092,0.254,0.165,0.348c0.07,0.098,0.138,0.198,0.202,0.301
				c0.071,0.096,0.113,0.223,0.2,0.303c0.083,0.084,0.163,0.171,0.24,0.261c0.63,0.703,1.508,1.258,2.554,1.664
				c2.159,0.754,4.747,1.013,7.117,1.12c0.594,0.031,1.176,0.081,1.752,0.062c0.573,0.001,1.131,0.03,1.67,0.042
				c1.084-0.022,2.102,0.008,3.023,0.013c0.918-0.007,1.754,0.008,2.491,0.037c0.745,0.01,1.39,0.015,1.911,0.041
				c0.524,0.036,0.926,0.063,1.197,0.082C210.852,169.987,210.993,170.003,210.993,170.003z"/>
		</g>
		<g>
			<path fill="#E40D1E" d="M296.727,158.342c-0.978,1.221-2.08,2.21-3.254,3.101c-1.167,0.89-2.41,1.649-3.721,2.294
				c-0.649,0.34-1.331,0.604-2.013,0.89c-0.697,0.238-1.395,0.503-2.124,0.682c-0.725,0.197-1.465,0.367-2.228,0.49
				c-0.759,0.136-1.538,0.244-2.341,0.3c-1.602,0.121-3.293,0.111-5.08-0.244c-0.888-0.162-1.802-0.435-2.704-0.785
				c-0.905-0.372-1.801-0.837-2.644-1.422c-0.842-0.587-1.615-1.286-2.298-2.053c-0.673-0.773-1.246-1.603-1.731-2.453
				c-0.933-1.716-1.476-3.472-1.794-5.144c-0.318-1.683-0.416-3.292-0.423-4.853c-0.003-1.56,0.098-3.07,0.259-4.544
				c0.323-2.948,0.893-5.762,1.563-8.511c0.352-1.371,0.744-2.721,1.152-4.057c0.422-1.333,0.876-2.649,1.346-3.954
				c0.494-1.297,0.984-2.589,1.531-3.858c0.532-1.273,1.111-2.525,1.721-3.763l5.666,2.637c-0.144,0.2-0.211,0.267-0.31,0.383
				l-0.269,0.291c-0.179,0.187-0.356,0.362-0.538,0.531c-0.362,0.338-0.729,0.655-1.11,0.95c-0.757,0.595-1.555,1.119-2.389,1.569
				c-1.662,0.904-3.474,1.501-5.289,1.718c-0.451,0.064-0.907,0.082-1.354,0.105c-0.451-0.001-0.896,0.005-1.338-0.036
				c-0.441-0.019-0.877-0.093-1.307-0.149c-0.428-0.088-0.853-0.152-1.266-0.271c-0.415-0.105-0.822-0.223-1.22-0.367
				c-0.402-0.125-0.787-0.296-1.171-0.451c-0.384-0.156-0.752-0.353-1.122-0.526c-0.364-0.191-0.719-0.396-1.074-0.591
				c0.402,0.073,0.798,0.154,1.195,0.218c0.402,0.046,0.795,0.114,1.194,0.138c0.398,0.024,0.79,0.062,1.184,0.053
				c0.392,0.01,0.781-0.007,1.166-0.036c0.384-0.014,0.765-0.085,1.138-0.129c0.373-0.076,0.742-0.131,1.1-0.237
				c0.361-0.084,0.709-0.21,1.053-0.323c0.339-0.137,0.675-0.263,0.994-0.427c1.289-0.618,2.402-1.478,3.322-2.483
				c0.461-0.5,0.875-1.039,1.234-1.6c0.182-0.278,0.345-0.565,0.493-0.847c0.074-0.141,0.143-0.283,0.202-0.419
				c0.032-0.069,0.057-0.134,0.082-0.198c0.015-0.05,0.06-0.149,0.022-0.119l5.666,2.637c-0.255,1.321-0.522,2.634-0.814,3.933
				l-0.846,3.887c-0.292,1.286-0.563,2.572-0.828,3.851c-0.281,1.275-0.529,2.549-0.76,3.815c-0.492,2.523-0.878,5.038-1.058,7.469
				c-0.087,1.214-0.118,2.406-0.072,3.546c0.047,1.137,0.16,2.232,0.384,3.197c0.099,0.493,0.234,0.933,0.372,1.359
				c0.148,0.411,0.321,0.782,0.493,1.117c0.177,0.327,0.365,0.617,0.568,0.874c0.212,0.246,0.439,0.463,0.682,0.68
				c0.255,0.203,0.546,0.392,0.87,0.58c0.347,0.163,0.709,0.345,1.14,0.479c0.839,0.293,1.864,0.474,2.958,0.583
				c0.274,0.028,0.551,0.049,0.838,0.061c0.284,0.019,0.57,0.035,0.865,0.035c0.292,0.006,0.585,0.013,0.886,0.002
				c0.3-0.001,0.599,0.01,0.906-0.005l3.795-0.065c1.309-0.011,2.66-0.01,4.06,0.043
				C293.736,157.993,295.172,158.057,296.727,158.342z"/>
			<g>
				<path fill="#E40D1E" d="M271.019,155.685c0,0-0.017,0.076-0.049,0.222c-0.039,0.138-0.091,0.351-0.171,0.613
					c-0.17,0.512-0.42,1.264-0.829,2.106c-0.444,0.836-1.09,1.834-1.943,2.837c-0.433,0.483-0.917,0.977-1.45,1.472
					c-0.537,0.491-1.168,0.933-1.825,1.391c-1.344,0.871-2.91,1.713-4.689,2.387c-1.807,0.616-3.794,1.161-5.97,1.237
					c-2.156,0.122-4.434-0.101-6.653-0.692c-2.212-0.626-4.333-1.599-6.25-2.815c-1.919-1.214-3.654-2.656-5.127-4.254
					c-0.356-0.408-0.71-0.814-1.063-1.218c-0.322-0.423-0.642-0.845-0.96-1.263c-0.333-0.412-0.595-0.854-0.891-1.278
					c-0.293-0.425-0.572-0.854-0.817-1.292c-1.059-1.724-1.852-3.481-2.583-5.152c-0.326-0.846-0.68-1.664-0.935-2.474
					c-0.139-0.403-0.275-0.8-0.409-1.189c-0.131-0.39-0.236-0.777-0.352-1.154c-0.112-0.379-0.222-0.749-0.329-1.112
					c-0.091-0.365-0.18-0.722-0.267-1.069c-0.18-0.695-0.35-1.356-0.471-1.982c-0.28-1.249-0.465-2.345-0.625-3.251
					c-0.159-0.905-0.242-1.619-0.32-2.107c-0.071-0.488-0.109-0.748-0.109-0.748l8.858-0.382c0,0-0.007,0.223-0.02,0.64
					c-0.004,0.417-0.057,1.035-0.033,1.814c0.009,0.391,0.018,0.823,0.029,1.294c0.008,0.473,0.068,0.974,0.103,1.517
					c0.032,0.545,0.096,1.117,0.178,1.719c0.04,0.302,0.081,0.611,0.123,0.928c0.056,0.313,0.114,0.633,0.173,0.96
					c0.212,1.318,0.578,2.705,1.016,4.151c0.467,1.429,1.021,2.925,1.779,4.348c0.738,1.43,1.604,2.856,2.679,4.094
					c1.062,1.244,2.263,2.382,3.632,3.211c1.365,0.833,2.876,1.348,4.39,1.536c1.519,0.188,3.03,0.054,4.479-0.19
					c1.451-0.229,2.855-0.69,4.209-1.084c0.338-0.119,0.672-0.237,1.001-0.353c0.334-0.103,0.665-0.203,0.983-0.343
					c0.637-0.272,1.287-0.443,1.882-0.73c0.603-0.263,1.214-0.452,1.797-0.667c0.581-0.218,1.155-0.401,1.715-0.554
					c1.094-0.328,2.099-0.56,3.02-0.725c0.91-0.22,1.697-0.304,2.233-0.361c0.273-0.022,0.492-0.027,0.635-0.037
					C270.942,155.686,271.019,155.685,271.019,155.685z"/>
				<path fill="#E40D1E" d="M267.418,124.065c0,0-0.745-0.567-2.05-1.559c-0.654-0.513-1.441-1.068-2.342-1.707
					c-0.889-0.655-1.939-1.343-3.081-2.095c-0.565-0.389-1.178-0.737-1.802-1.12c-0.624-0.384-1.272-0.773-1.954-1.127
					c-0.677-0.366-1.368-0.76-2.094-1.085c-0.36-0.172-0.725-0.345-1.092-0.521c-0.369-0.17-0.747-0.305-1.125-0.462
					c-1.509-0.631-3.099-1.095-4.662-1.333c-1.564-0.241-3.094-0.19-4.389,0.268c-1.298,0.449-2.4,1.289-3.317,2.442
					c-0.918,1.149-1.629,2.574-2.189,4.046c-0.561,1.475-0.986,3-1.305,4.489c-0.335,1.481-0.57,2.925-0.77,4.265
					c-0.191,1.344-0.338,2.589-0.455,3.697c-0.115,1.11-0.204,2.082-0.269,2.887c-0.126,1.612-0.198,2.532-0.198,2.532l-8.835-0.745
					c0,0,0.149-0.954,0.41-2.624c0.133-0.836,0.306-1.858,0.519-3.036c0.216-1.178,0.476-2.515,0.799-3.982
					c0.332-1.47,0.715-3.068,1.235-4.782c0.502-1.706,1.142-3.531,2.016-5.426c0.88-1.886,1.996-3.878,3.679-5.741
					c0.429-0.462,0.85-0.922,1.372-1.342l0.754-0.632c0.269-0.197,0.558-0.381,0.838-0.567c0.287-0.18,0.558-0.376,0.862-0.531
					l0.924-0.447c0.607-0.317,1.27-0.488,1.913-0.693c2.622-0.729,5.186-0.555,7.362-0.072c2.195,0.491,4.141,1.247,5.865,2.114
					c0.432,0.217,0.873,0.417,1.282,0.643c0.405,0.231,0.805,0.459,1.202,0.685c0.804,0.438,1.53,0.925,2.247,1.387
					c0.726,0.452,1.395,0.926,2.036,1.39c0.641,0.463,1.275,0.893,1.84,1.349c1.15,0.889,2.201,1.702,3.101,2.476
					c0.911,0.758,1.703,1.417,2.298,1.966c1.225,1.094,1.925,1.719,1.925,1.719L267.418,124.065z"/>
			</g>
		</g>
		<path fill="#E40D1E" d="M339.316,146.851c-0.471,6.674-3.407,13.339-7.321,18.405c-3.845,4.976-9.54,9.111-15.444,6.956
			c-5.676-2.071-8.797-8.603-10.78-14.504c-2.237-6.652-3.604-13.712-4.522-20.782c-0.66-5.077-1.107-10.223-1.246-15.373
			c1.18,1.281,2.359,2.561,3.539,3.842c-0.126,0.074-1.106-0.294-1.258-0.318c-0.859-0.137-1.73-0.191-2.602-0.158
			c-1.832,0.07-3.586,0.557-5.22,1.554c-2.925,1.734-4.285,5.311-5.106,8.677c-0.275-3.382-0.067-6.742,1.528-9.796
			c1.354-2.593,3.383-4.604,5.711-6.041c2.18-1.345,4.674-2.332,7.126-2.659c0.589-0.071,2.973-0.471,3.114,0.08
			c0.672,2.625,1.137,5.084,1.506,7.796c0.375,2.76,0.77,5.517,1.188,8.268c0.932,6.13,1.955,12.313,3.701,18.197
			c0.789,2.657,1.741,5.293,3.052,7.665c1.022,1.869,2.647,4.489,4.929,3.996c3.542-0.766,6.453-4.521,9.036-7.209
			C333.141,152.434,336.02,149.299,339.316,146.851C339.178,148.809,337.835,147.951,339.316,146.851z"/>
		<path fill="#E40D1E" d="M418.189,145.503c0,0-0.049,0.613-0.139,1.762c-0.011,0.144-0.023,0.296-0.036,0.456
			c-0.008,0.082-0.01,0.159-0.022,0.25c-0.017,0.098-0.034,0.199-0.052,0.302c-0.074,0.412-0.155,0.861-0.242,1.347
			c-0.046,0.242-0.093,0.493-0.143,0.752c-0.043,0.266-0.108,0.521-0.196,0.771c-0.163,0.509-0.336,1.05-0.519,1.622
			c-0.829,2.247-2.117,4.851-4.031,7.534c-1.905,2.682-4.44,5.477-7.8,7.911c-0.847,0.591-1.696,1.255-2.653,1.769
			c-0.474,0.275-0.952,0.552-1.434,0.832c-0.497,0.251-1.011,0.476-1.526,0.726c-2.048,1.043-4.325,1.792-6.746,2.415
			c-0.606,0.145-1.224,0.237-1.849,0.356c-0.314,0.055-0.629,0.111-0.945,0.167l-0.477,0.082c0.2,0.008-0.34,0.001-0.302,0.003
			l-0.051,0.006l-0.102,0.011l-0.204,0.022c-0.545,0.057-1.094,0.114-1.646,0.172l-0.414,0.043c-0.139,0.014-0.264,0.033-0.46,0.027
			c-0.36-0.003-0.722-0.007-1.084-0.01c-0.727-0.012-1.471-0.027-2.211-0.06c-0.682-0.066-1.365-0.166-2.058-0.255l-1.043-0.143
			l-1.034-0.228c-0.692-0.157-1.392-0.312-2.093-0.487c-2.745-0.865-5.502-2.047-8.021-3.762c-0.327-0.194-0.629-0.428-0.934-0.659
			l-0.915-0.699l-0.902-0.723c-0.292-0.253-0.568-0.529-0.852-0.795c-0.555-0.546-1.148-1.059-1.655-1.661
			c-0.492-0.616-0.957-1.259-1.381-1.926c-0.414-0.673-0.731-1.425-1.032-2.165c-0.158-0.366-0.285-0.748-0.412-1.126
			c-0.109-0.391-0.199-0.79-0.282-1.187c-0.088-0.395-0.165-0.791-0.229-1.188c-0.073-0.393-0.133-0.786-0.156-1.195l-0.173-2.369
			c0.028-1.591-0.069-3.066-0.049-4.538c-0.012-0.73-0.113-1.441-0.111-2.162c-0.011-0.359-0.042-0.717-0.07-1.075l-0.059-0.537
			l-0.015-0.134l-0.008-0.067c-0.03-0.022,0.063-0.046-0.096-0.066c-0.168-0.021-0.514-0.04-1.102-0.059l-1.816-0.061
			c-0.549-0.022-1.337-0.045-1.691-0.071c-0.402-0.25-0.675,0.451-0.639-0.583c-0.035-0.618-0.114-1.238-0.108-1.853
			c0.002-0.324-0.038-0.537,0.039-1.122c0.061-0.5,0.128-1,0.201-1.5c0.071-0.5,0.181-0.994,0.279-1.487l0.077-0.369
			c0.03-0.114,0.058-0.213,0.094-0.318l0.211-0.622c0.28-0.828,0.591-1.645,0.952-2.43c0.406-0.768,0.835-1.52,1.282-2.249
			c0.211-0.371,0.47-0.714,0.731-1.05l0.775-1.005l0.779-0.981l0.854-0.904l0.853-0.882c0.277-0.295,0.546-0.593,0.855-0.854
			c2.353-2.187,4.742-4.09,7.289-5.615c0.648-0.351,1.295-0.702,1.939-1.051c0.64-0.347,1.326-0.596,1.98-0.888l0.987-0.415
			c0.327-0.137,0.673-0.229,1.007-0.344c0.67-0.212,1.337-0.423,2.001-0.634c0.677-0.161,1.35-0.309,2.018-0.45l0.997-0.207
			l1.006-0.123c0.663-0.076,1.324-0.152,1.981-0.227c0.657-0.018,1.311-0.036,1.961-0.054l0.964-0.018
			c0.319-0.008,0.639,0.033,0.956,0.049c0.63,0.045,1.257,0.091,1.879,0.135l0.232,0.018l0.116,0.009l0.058,0.005
			c-0.02,0,0.387,0.014,0.238,0.012l0.402,0.073l0.8,0.141l0.795,0.137l0.395,0.068c0.129,0.021,0.26,0.043,0.425,0.085
			c0.616,0.148,1.227,0.296,1.834,0.442c0.299,0.076,0.597,0.151,0.894,0.226c0.292,0.08,0.555,0.189,0.832,0.277
			c0.543,0.187,1.082,0.372,1.617,0.556l0.397,0.138l0.385,0.171c0.255,0.114,0.509,0.228,0.762,0.341
			c0.503,0.23,1.003,0.446,1.488,0.682c0.473,0.259,0.942,0.517,1.407,0.771c0.941,0.473,1.782,1.089,2.617,1.646
			c0.207,0.143,0.418,0.276,0.616,0.426c0.193,0.157,0.385,0.314,0.577,0.47c0.383,0.305,0.763,0.606,1.138,0.904
			c0.737,0.608,1.383,1.292,2.042,1.907c0.623,0.658,1.174,1.352,1.744,1.983c0.537,0.663,1.012,1.345,1.508,1.971
			c1.878,2.592,3.275,5.048,4.238,7.217c0.215,0.554,0.418,1.079,0.61,1.572c0.217,0.491,0.29,0.985,0.421,1.432
			c0.115,0.453,0.221,0.872,0.318,1.255c0.11,0.384,0.114,0.745,0.165,1.063c0.075,0.642,0.133,1.134,0.172,1.466
			c0.022,0.166,0.031,0.293,0.033,0.378c0.004,0.085,0.006,0.128,0.006,0.128L418.189,145.503z M412.785,145.353
			c0,0-0.002-0.034-0.006-0.1c-0.007-0.066-0.009-0.165-0.001-0.296c0.01-0.263,0.026-0.654,0.045-1.163
			c0.053-0.516-0.015-1.141-0.068-1.887c-0.015-0.755-0.188-1.596-0.351-2.563c-0.055-0.492-0.243-0.972-0.38-1.5
			c-0.152-0.523-0.302-1.079-0.559-1.619c-0.117-0.276-0.236-0.559-0.357-0.846c-0.122-0.288-0.235-0.591-0.405-0.868
			c-0.329-0.56-0.662-1.152-1.047-1.737c-1.535-2.355-3.912-4.603-6.893-6.446c-0.761-0.435-1.515-0.929-2.363-1.282
			c-0.416-0.193-0.835-0.388-1.258-0.585c-0.437-0.163-0.886-0.307-1.335-0.465c-1.792-0.652-3.748-1.011-5.697-1.279
			c-0.505-0.058-1.052-0.066-1.582-0.101l-0.804-0.042l-0.404-0.02l-0.339,0.015c-0.521,0.023-1.044,0.045-1.571,0.068
			c-0.263,0.017-0.529,0.008-0.791,0.047l-0.79,0.109c-0.528,0.073-1.059,0.146-1.592,0.219c-0.524,0.122-1.051,0.245-1.581,0.368
			l-0.797,0.184l-0.779,0.259c-0.52,0.173-1.043,0.348-1.568,0.523c-0.507,0.222-1.015,0.445-1.526,0.668
			c-0.253,0.117-0.518,0.211-0.762,0.347l-0.736,0.407c-0.484,0.283-1.001,0.518-1.465,0.841c-0.467,0.318-0.936,0.636-1.407,0.956
			c-1.807,1.372-3.523,2.935-4.917,4.789c-1.38,1.855-2.533,3.902-3.319,6.106c-0.741,2.262-1.126,4.408-1.188,6.95l0.149,1.697
			c0.02,0.586,0.176,1.155,0.282,1.728c0.176,1.155,0.595,2.25,0.946,3.348c0.845,2.159,2.008,4.163,3.407,5.961
			c1.422,1.785,3.091,3.334,4.874,4.681c1.806,1.33,3.797,2.33,5.806,3.167c0.516,0.176,1.029,0.352,1.541,0.527l0.766,0.262
			l0.784,0.187c0.521,0.126,1.04,0.251,1.557,0.375c0.512,0.075,1.021,0.149,1.528,0.224l0.758,0.114
			c0.249,0.041,0.543,0.035,0.811,0.055c0.548,0.027,1.092,0.054,1.634,0.081l0.203,0.01l0.101,0.005l0.051,0.002
			c0.032,0.002-0.094-0.004-0.018-0.003l0.384-0.018l0.764-0.035c0.507-0.03,1.014-0.03,1.513-0.082
			c1.988-0.248,3.92-0.587,5.699-1.215c0.445-0.155,0.888-0.302,1.321-0.465c0.42-0.192,0.837-0.383,1.25-0.572
			c0.843-0.342,1.593-0.826,2.352-1.25c0.187-0.11,0.38-0.21,0.56-0.327c0.176-0.124,0.35-0.247,0.524-0.37
			c0.348-0.244,0.691-0.486,1.031-0.725c0.67-0.49,1.256-1.053,1.866-1.552c0.577-0.537,1.065-1.134,1.579-1.669
			c0.465-0.58,0.886-1.165,1.311-1.715c1.559-2.319,2.345-4.621,2.792-6.5c0.179-0.956,0.373-1.807,0.39-2.489
			c0.032-0.345,0.063-0.664,0.09-0.956c0.008-0.072,0.015-0.143,0.022-0.212c0.003-0.077-0.001-0.165-0.001-0.244
			c-0.002-0.161-0.004-0.314-0.006-0.458c-0.015-1.155-0.023-1.771-0.023-1.771L412.785,145.353z"/>
		<path fill="#E51D2A" d="M337.281,147.246c-3.026,5.137-6.789,9.698-10.947,13.561c-2.106,1.957-4.302,3.954-6.801,5.102
			c-0.692,0.318-1.249,0.45-1.849,0.953c-0.441,0.37-0.882,0.74-1.324,1.109c-0.216,0.181,0.382,3.207,0.428,3.572
			c0.133,1.06,0.276,1.874,0.618,2.848c2.053,5.855,3.558,12.991-0.462,18.557c-4.043,5.526-10.789,7.68-16.511,8.942
			c-8.956,1.975-18.071,2.031-27.051,1.587c-10.796-0.533-22.698-3.872-28.126-4.899C123.777,169.838,3.383,213.475,3.383,213.475
			c-7.611,29.711,0,36.591,0,36.591c82.267-62.067,199.811-57.323,253.012-44.62c9.107,1.968,11.282,2.536,24.467,3.749
			c6.481,0.596,13.041,0.743,19.57-0.043c6.304-0.759,12.739-2.479,18.258-6.587c5.053-3.942,8.463-9.888,9.198-16.948
			c0.537-5.156-0.203-10.48-1.968-15.133c1.55-2.147,3.319-4.122,4.858-6.208c1.732-2.348,3.438-4.705,5.004-7.213
			c2.525-4.046,4.735-8.431,6.123-13.166c1.368-4.664,1.963-9.496,2.087-14.352C342.363,135.791,340.494,141.791,337.281,147.246z"
			/>
		<path fill="#E51D2A" d="M126.76,22.12c0,0-88.828,121.024-87.639,216.337c0,0,12.287-10.504,18.739-12.951
			c0,0,12.307-92.049,71.339-198.539C129.199,26.967,129.565,21.377,126.76,22.12z"/>
		<path fill="#E51D2A" d="M126.76,22.12c0,0-88.828,121.024-87.639,216.337c0,0,12.287-10.504,18.739-12.951
			c0,0,12.307-92.049,71.339-198.539C129.199,26.967,129.565,21.377,126.76,22.12z"/>
		<path fill="#E51D2A" d="M50.025,214.926c1.956-15.078,5.759-30.541,10.71-45.804C54.997,189.76,51.718,205.62,50.025,214.926z"/>
		<path fill="#E51D2A" d="M50.025,214.926c1.956-15.078,5.759-30.541,10.71-45.804C54.997,189.76,51.718,205.62,50.025,214.926z"/>
		<path fill="#E51D2A" d="M50.025,214.926c1.956-15.078,5.759-30.541,10.71-45.804C54.997,189.76,51.718,205.62,50.025,214.926z"/>
		<path fill="#E51D2A" d="M50.025,214.926c1.956-15.078,5.759-30.541,10.71-45.804C54.997,189.76,51.718,205.62,50.025,214.926z"/>
		<path fill="#E51D2A" d="M44.802,227.111c2.732-45.235,24.132-94.966,42.403-129.918c3.729-7.134,7.469-13.932,11.111-20.307
			c-15.392,34.589-25.635,65.285-32.113,87.79c-8.432,29.292-12.092,49.84-13.257,57.178
			C50.346,223.247,47.464,225.179,44.802,227.111z"/>
		<path fill="#E51D2A" d="M44.802,227.111c2.732-45.235,24.132-94.966,42.403-129.918c3.729-7.134,7.469-13.932,11.111-20.307
			c-15.392,34.589-25.635,65.285-32.113,87.79c-8.432,29.292-12.092,49.84-13.257,57.178
			C50.346,223.247,47.464,225.179,44.802,227.111z"/>
		<path fill="#E51D2A" d="M44.802,227.111c2.732-45.235,24.132-94.966,42.403-129.918c3.729-7.134,7.469-13.932,11.111-20.307
			c-15.392,34.589-25.635,65.285-32.113,87.79c-8.432,29.292-12.092,49.84-13.257,57.178
			C50.346,223.247,47.464,225.179,44.802,227.111z"/>
		<path fill="#E51D2A" d="M44.802,227.111c2.732-45.235,24.132-94.966,42.403-129.918c3.729-7.134,7.469-13.932,11.111-20.307
			c-15.392,34.589-25.635,65.285-32.113,87.79c-8.432,29.292-12.092,49.84-13.257,57.178
			C50.346,223.247,47.464,225.179,44.802,227.111z"/>
		<path fill="#E51D2A" d="M44.802,227.111c2.732-45.235,24.132-94.966,42.403-129.918c3.729-7.134,7.469-13.932,11.111-20.307
			c-15.392,34.589-25.635,65.285-32.113,87.79c-8.432,29.292-12.092,49.84-13.257,57.178
			C50.346,223.247,47.464,225.179,44.802,227.111z"/>
		<path fill="#E51D2A" d="M44.802,227.111c2.732-45.235,24.132-94.966,42.403-129.918c3.729-7.134,7.469-13.932,11.111-20.307
			c-15.392,34.589-25.635,65.285-32.113,87.79c-8.432,29.292-12.092,49.84-13.257,57.178
			C50.346,223.247,47.464,225.179,44.802,227.111z"/>
		<path fill="#E51D2A" d="M58.751,107.343c0,0,42.152-52.854,58.094-56.997c5.04,5.842,29.809,27.405,98.414-30.571
			c0,0-23.248,40.503-21.687,48.322c0,0-24.758,10.474-50.403,30.49c0,0,30.775-33.196,38.971-38.826
			C182.14,59.76,101.488,66.686,58.751,107.343z"/>
		<path fill="#E51D2A" d="M33.439,134.155c7.463-0.302,2.422-0.05,3.712-0.101c5.157-0.209,11.106-0.738,17.39-1.676
			c6.285-0.936,12.913-2.251,19.462-3.897c3.275-0.82,6.539-1.687,9.73-2.633c3.192-0.94,6.318-1.932,9.326-2.961
			c6.018-2.052,11.561-4.276,16.261-6.394c1.175-0.529,2.298-1.049,3.36-1.57c1.063-0.517,2.074-0.994,3.013-1.489
			c0.942-0.483,1.825-0.932,2.632-1.381c0.811-0.436,1.554-0.844,2.22-1.233c1.338-0.756,2.376-1.404,3.082-1.851
			c0.703-0.463-1.119,0.697,1.078-0.71c-0.884,8.252,4.51,18.835,4.51,18.835s-0.446-0.05-1.282-0.144
			c-0.832-0.079-2.052-0.186-3.587-0.254c-0.77-0.045-1.618-0.073-2.538-0.094c-0.924-0.035-1.914-0.035-2.972-0.039
			c-1.062-0.016-2.179,0.016-3.361,0.037c-1.183,0.016-2.419,0.062-3.707,0.122c-5.15,0.24-11.099,0.768-17.393,1.664
			c-3.148,0.446-6.384,0.977-9.655,1.584c-3.273,0.601-6.576,1.307-9.867,2.059c-6.584,1.498-13.089,3.328-19.116,5.34
			c-6.028,2.01-11.571,4.232-16.263,6.382c-1.173,0.539-2.293,1.072-3.355,1.591c-1.058,0.538-2.061,1.049-3.004,1.529
			c-1.876,0.998-3.503,1.906-4.831,2.705c-1.329,0.794-2.364,1.455-3.063,1.931c-0.352,0.23-0.617,0.425-0.797,0.551
			c-0.18,0.127-0.272,0.193-0.272,0.193S25.62,137.033,33.439,134.155z"/>
		<path fill="#E51D2A" d="M33.439,134.155c7.463-0.302,2.422-0.05,3.712-0.101c5.157-0.209,11.106-0.738,17.39-1.676
			c6.285-0.936,12.913-2.251,19.462-3.897c3.275-0.82,6.539-1.687,9.73-2.633c3.192-0.94,6.318-1.932,9.326-2.961
			c6.018-2.052,11.561-4.276,16.261-6.394c1.175-0.529,2.298-1.049,3.36-1.57c1.063-0.517,2.074-0.994,3.013-1.489
			c0.942-0.483,1.825-0.932,2.632-1.381c0.811-0.436,1.554-0.844,2.22-1.233c1.338-0.756,2.376-1.404,3.082-1.851
			c0.703-0.463-1.119,0.697,1.078-0.71c-0.884,8.252,4.51,18.835,4.51,18.835s-0.446-0.05-1.282-0.144
			c-0.832-0.079-2.052-0.186-3.587-0.254c-0.77-0.045-1.618-0.073-2.538-0.094c-0.924-0.035-1.914-0.035-2.972-0.039
			c-1.062-0.016-2.179,0.016-3.361,0.037c-1.183,0.016-2.419,0.062-3.707,0.122c-5.15,0.24-11.099,0.768-17.393,1.664
			c-3.148,0.446-6.384,0.977-9.655,1.584c-3.273,0.601-6.576,1.307-9.867,2.059c-6.584,1.498-13.089,3.328-19.116,5.34
			c-6.028,2.01-11.571,4.232-16.263,6.382c-1.173,0.539-2.293,1.072-3.355,1.591c-1.058,0.538-2.061,1.049-3.004,1.529
			c-1.876,0.998-3.503,1.906-4.831,2.705c-1.329,0.794-2.364,1.455-3.063,1.931c-0.352,0.23-0.617,0.425-0.797,0.551
			c-0.18,0.127-0.272,0.193-0.272,0.193S25.62,137.033,33.439,134.155z"/>
	</g>
	<g>
		<g>
			<path fill="#CBCBCB" d="M297.845,60.212c-5.814,12.29,1.204,30.639,1.204,30.639s-24.723-28.674-21.128-51.486
				c0,0-16.383-7.246-16.383-18.595C261.538,20.771,288.475,28.436,297.845,60.212z"/>
			<path fill="#E58608" d="M297.165,20.523c-4.124,1.754-6.433-0.057-8.541-2.032c-0.26,0.273,0.237,0.38-0.029,0.513
				c-3.153,1.583-6.629,11.361-4.953,16.391c8.39,9.986,11.18,20.594,11.18,20.594c3.898-19.464,16.892-29.407,32.37-47.431
				L297.165,20.523z"/>
			<path fill="#E10717" d="M264.043,13.578c-1.095,0.959-2.854,3.603-2.585,6.248c-1.216-0.415-9.177-1.747-27.705,0.199
				c25.444,1.039,39.091,4.205,49.89,15.37c-0.315-8.408,2.549-13.623,5.321-16.591c-1.916-1.797-3.084-2.611-3.36-3.872
				c-0.684-2.832,3.36-4.213,3.36-4.213c-9.169-2.935-15.573-1.847-19.054-0.687C266.766,11.042,265.362,12.39,264.043,13.578z
				 M269.352,16.374c-1.017,0-1.841-0.679-1.841-1.516c0-0.837,0.824-1.516,1.841-1.516s1.841,0.679,1.841,1.516
				C271.193,15.696,270.369,16.374,269.352,16.374z"/>
			<g>
				<path fill="#C29707" d="M339.478,37.383c-9.316,3.26-21.245,8.542-42.894,11.816c-1.355,3.3-1.761,6.79-1.761,6.79
					c2.447,1.09,12.589,0.862,22.821-0.856c-0.349-0.195-0.692-0.396-1.031-0.588c-0.446-0.305-0.885-0.606-1.31-0.896
					c-0.397-0.321-0.781-0.632-1.145-0.927c-0.363-0.291-0.663-0.619-0.961-0.891c-0.29-0.282-0.565-0.527-0.774-0.782
					c-0.217-0.245-0.406-0.458-0.561-0.634c-0.309-0.349-0.486-0.549-0.486-0.549s0.211,0.164,0.579,0.452
					c0.183,0.143,0.406,0.316,0.661,0.515c0.246,0.208,0.56,0.397,0.89,0.616c0.336,0.21,0.676,0.468,1.076,0.68
					c0.395,0.214,0.811,0.439,1.241,0.672c0.444,0.196,0.903,0.399,1.37,0.605c0.483,0.163,0.961,0.348,1.45,0.496l0.738,0.196
					c0.243,0.071,0.487,0.127,0.734,0.167c0.244,0.046,0.486,0.092,0.725,0.137c0.239,0.04,0.479,0.059,0.711,0.09
					c0.359,0.053,0.708,0.068,1.046,0.085c3.207-0.377,6.337-0.773,9.173-1.147c-0.068-0.032-0.137-0.062-0.204-0.096l-0.793-0.378
					c-0.259-0.135-0.51-0.283-0.762-0.422c-0.249-0.144-0.503-0.272-0.739-0.425c-0.235-0.154-0.467-0.306-0.695-0.456
					c-0.463-0.286-0.875-0.613-1.268-0.917c-0.196-0.151-0.386-0.298-0.571-0.44c-0.173-0.156-0.34-0.306-0.501-0.451
					c-0.317-0.292-0.618-0.545-0.863-0.791c-0.239-0.253-0.447-0.474-0.619-0.655c-0.341-0.361-0.535-0.568-0.535-0.568
					s0.228,0.17,0.626,0.467c0.198,0.148,0.438,0.327,0.714,0.532c0.28,0.198,0.617,0.394,0.971,0.62
					c0.178,0.111,0.363,0.228,0.554,0.348c0.201,0.105,0.408,0.214,0.621,0.325c0.424,0.224,0.866,0.464,1.352,0.657
					c0.238,0.103,0.48,0.208,0.725,0.314c0.245,0.105,0.505,0.182,0.76,0.276c0.257,0.088,0.512,0.184,0.772,0.267l0.792,0.22
					c0.522,0.162,1.066,0.248,1.586,0.366c0.528,0.089,1.046,0.175,1.55,0.228c0.504,0.051,0.989,0.097,1.45,0.107
					c0.46,0.03,0.893,0.01,1.29,0.013c0.059-0.004,0.112-0.006,0.17-0.009c3.607-0.506,5.91-0.854,5.91-0.854
					c0.118-0.019,0.233-0.038,0.35-0.056c-0.384-0.248-0.759-0.504-1.107-0.782c-0.266-0.213-0.532-0.419-0.773-0.648
					c-0.245-0.223-0.491-0.437-0.71-0.671c-0.457-0.447-0.854-0.917-1.23-1.356c-0.353-0.461-0.697-0.881-0.972-1.302
					c-0.142-0.206-0.277-0.404-0.406-0.591c-0.119-0.194-0.232-0.378-0.338-0.551c-0.215-0.343-0.395-0.645-0.529-0.902
					c-0.277-0.507-0.436-0.797-0.436-0.797s0.205,0.258,0.564,0.71c0.174,0.229,0.401,0.495,0.668,0.792
					c0.132,0.15,0.272,0.309,0.419,0.477c0.156,0.16,0.32,0.328,0.491,0.503c0.332,0.358,0.733,0.704,1.139,1.081
					c0.428,0.354,0.873,0.729,1.367,1.069c0.237,0.182,0.498,0.338,0.755,0.502c0.253,0.17,0.526,0.314,0.797,0.463
					c0.54,0.299,1.113,0.546,1.687,0.767c0.581,0.204,1.165,0.381,1.75,0.491c0.192,0.042,0.384,0.073,0.575,0.1
					C381.988,44.612,346.851,35.584,339.478,37.383z"/>
			</g>
			<g>
				<path fill="#DCA91A" d="M363.944,17.324c2.438-2.791,2.547-5.327,2.547-5.327l-0.044-0.108c-2.015,0.13-4.049,0.24-6.085,0.346
					c-4.55,0.234-9.091,0.462-13.332,0.839c-4.241,0.371-8.184,0.894-11.52,1.577c-3.337,0.678-6.063,1.504-7.919,2.219
					c-0.466,0.174-0.879,0.337-1.234,0.492c-0.357,0.149-0.66,0.277-0.9,0.393c-0.484,0.224-0.743,0.344-0.743,0.344
					s0.253-0.13,0.728-0.375c0.236-0.126,0.533-0.267,0.885-0.43c0.349-0.17,0.756-0.35,1.215-0.544
					c1.831-0.795,4.535-1.738,7.863-2.561c3.328-0.827,7.274-1.518,11.52-2.069c4.247-0.557,8.269-0.772,12.719-1.471
					c7.058-0.706,10.948-1.451,10.948-1.451C375.811,8.088,375.9,0,375.9,0c-28.575,0.749-47.66,7.844-49.63,8.926
					C302.357,27.608,296.584,49.2,296.584,49.2c15.001-1.718,35.919-7.942,48.914-17.953c-1.222,0.192-2.483,0.323-3.776,0.429
					c-2.985,0.237-6.131,0.362-9.261,0.618c-3.128,0.252-6.24,0.628-9.111,1.234c-2.872,0.596-5.496,1.42-7.659,2.344
					c-2.17,0.911-3.868,1.923-5.018,2.679c-0.57,0.388-1.015,0.698-1.307,0.925c-0.296,0.222-0.454,0.34-0.454,0.34
					s0.15-0.128,0.432-0.368c0.278-0.245,0.704-0.583,1.251-1.007c1.106-0.83,2.751-1.955,4.891-3.014
					c2.132-1.071,4.748-2.077,7.632-2.865c2.882-0.799,6.024-1.378,9.169-1.83c3.145-0.456,6.299-0.779,9.198-1.192
					c1.447-0.209,2.831-0.443,4.091-0.748c1.256-0.305,2.396-0.686,3.262-1.178c0.882-0.485,1.412-1.067,1.662-1.638
					c0.268-0.567,0.292-1.187,0.261-1.724c-0.007-0.264-0.061-0.525-0.089-0.733c-0.05-0.213-0.067-0.353-0.118-0.538
					c-0.023-0.087-0.044-0.163-0.062-0.229c-1.521-0.057-3.05-0.114-4.582-0.143c-3.704-0.082-7.403-0.014-10.852,0.321
					c-3.449,0.325-6.639,0.93-9.311,1.688c-1.335,0.38-2.55,0.772-3.604,1.181c-0.532,0.192-1.016,0.406-1.472,0.586
					c-0.448,0.199-0.86,0.381-1.231,0.546c-0.733,0.352-1.309,0.631-1.692,0.842c-0.387,0.203-0.593,0.312-0.593,0.312
					s0.199-0.121,0.573-0.347c0.37-0.233,0.928-0.547,1.642-0.944c0.363-0.188,0.765-0.396,1.202-0.622
					c0.446-0.208,0.921-0.453,1.444-0.678c1.037-0.475,2.237-0.944,3.563-1.41c2.654-0.929,5.853-1.738,9.335-2.28
					c3.481-0.552,7.235-0.846,10.978-0.989c3.742-0.153,5.629-0.073,9.067-0.253c1.717-0.092,3.189-0.081,4.807-0.296
					C360.988,20.033,362.535,18.894,363.944,17.324z"/>
			</g>
			<path fill="#C27413" d="M294.772,55.554c-0.653,10.777-1.244,20.692,3.947,34.887c-15.244-20.516-15.272-25.014-17.826-29.973
				c-1.291,10.986-15.679,22.567-15.679,22.567c3.671,4.553,7.163,8.25,10.481,11.215c0.08-1.147,0.207-2.329,0.4-3.505
				c0.136-0.798,0.287-1.594,0.487-2.366c0.186-0.774,0.42-1.525,0.67-2.241c0.12-0.359,0.272-0.702,0.402-1.042
				c0.141-0.336,0.299-0.658,0.441-0.973c0.162-0.306,0.32-0.604,0.473-0.892c0.171-0.277,0.336-0.545,0.495-0.802
				c0.343-0.497,0.666-0.944,0.994-1.306c0.303-0.382,0.629-0.66,0.868-0.91c0.253-0.238,0.474-0.401,0.613-0.523
				c0.142-0.118,0.218-0.181,0.218-0.181s-0.068,0.072-0.195,0.207c-0.123,0.138-0.32,0.325-0.539,0.59
				c-0.206,0.277-0.487,0.584-0.735,0.992c-0.273,0.389-0.53,0.861-0.799,1.376c-0.121,0.264-0.247,0.54-0.377,0.825
				c-0.111,0.292-0.226,0.595-0.344,0.905c-0.098,0.319-0.209,0.64-0.303,0.976c-0.083,0.34-0.186,0.679-0.257,1.034
				c-0.152,0.708-0.284,1.443-0.368,2.198c-0.098,0.752-0.146,1.524-0.18,2.293c-0.069,1.78,0.019,3.555,0.178,5.179
				c4.148,3.39,8.011,5.615,11.594,6.92c-0.337-1.208-0.638-2.477-0.86-3.767c-0.133-0.799-0.251-1.6-0.315-2.395
				c-0.077-0.793-0.103-1.579-0.101-2.336c-0.004-0.379,0.027-0.753,0.038-1.116c0.023-0.364,0.067-0.719,0.098-1.064
				c0.053-0.343,0.105-0.676,0.155-0.998c0.071-0.318,0.139-0.625,0.205-0.92c0.162-0.582,0.32-1.11,0.511-1.56
				c0.161-0.46,0.378-0.829,0.522-1.144c0.161-0.308,0.316-0.534,0.408-0.695c0.096-0.158,0.147-0.243,0.147-0.243
				s-0.04,0.09-0.116,0.26c-0.071,0.171-0.196,0.412-0.316,0.734c-0.104,0.329-0.269,0.711-0.37,1.179
				c-0.13,0.457-0.219,0.987-0.304,1.562c-0.028,0.289-0.056,0.591-0.086,0.903c-0.009,0.313-0.019,0.636-0.029,0.968
				c0.012,0.333,0.012,0.673,0.033,1.021c0.033,0.348,0.047,0.702,0.096,1.061c0.088,0.718,0.204,1.456,0.372,2.197
				c0.154,0.742,0.361,1.487,0.581,2.226c0.528,1.739,1.208,3.42,1.905,4.925c10.555,2.662,12.478-1.056,17.95-7.614
				c-0.155-0.149-0.315-0.296-0.464-0.449c-0.566-0.561-1.087-1.15-1.569-1.734c-0.245-0.289-0.46-0.596-0.683-0.883
				c-0.214-0.295-0.408-0.596-0.604-0.881c-0.178-0.298-0.351-0.587-0.518-0.867c-0.148-0.29-0.292-0.57-0.429-0.839
				c-0.247-0.551-0.462-1.059-0.602-1.527c-0.169-0.457-0.239-0.879-0.328-1.214c-0.072-0.34-0.097-0.613-0.129-0.795
				c-0.027-0.183-0.042-0.281-0.042-0.281s0.027,0.095,0.076,0.274c0.054,0.177,0.112,0.442,0.225,0.767
				c0.13,0.319,0.247,0.719,0.468,1.143c0.192,0.435,0.462,0.9,0.763,1.396c0.164,0.24,0.334,0.491,0.51,0.75
				c0.192,0.247,0.391,0.501,0.596,0.763c0.222,0.249,0.439,0.511,0.677,0.765c0.247,0.247,0.484,0.511,0.751,0.756
				c0.526,0.497,1.087,0.99,1.689,1.454c0.15,0.12,0.309,0.233,0.465,0.349c2.339-2.99,4.181-6.133,5.541-8.8
				c-0.582-0.506-1.155-1.022-1.685-1.566c-0.566-0.561-1.087-1.15-1.569-1.734c-0.245-0.289-0.46-0.596-0.683-0.883
				c-0.214-0.295-0.408-0.596-0.604-0.881c-0.178-0.298-0.351-0.587-0.518-0.867c-0.148-0.29-0.292-0.57-0.429-0.839
				c-0.247-0.551-0.462-1.059-0.602-1.527c-0.169-0.457-0.239-0.879-0.328-1.214c-0.072-0.34-0.097-0.613-0.129-0.795
				c-0.027-0.183-0.042-0.281-0.042-0.281s0.027,0.095,0.076,0.274c0.054,0.177,0.112,0.442,0.225,0.767
				c0.13,0.319,0.247,0.719,0.468,1.143c0.192,0.435,0.462,0.9,0.763,1.396c0.164,0.24,0.334,0.491,0.51,0.75
				c0.192,0.247,0.391,0.501,0.596,0.763c0.222,0.249,0.439,0.511,0.677,0.765c0.247,0.247,0.484,0.51,0.751,0.756
				c0.526,0.497,1.087,0.99,1.689,1.454c0.487,0.39,1.006,0.754,1.531,1.111c1.484-3.1,2.214-5.271,2.214-5.271
				c-5.19-3.749-8.252-8.333-10.07-12.438"/>
			<path fill="#F07E1A" d="M294.772,55.554c0,0,0.509-3.218,1.813-6.354c1.491-0.13,6.825-1.033,9.558-1.557
				c0.173,1.672,0.042,2.072,0.126,3.637c-0.079,1.652-0.094,2.371,0.169,5.17c0.106,0.589,0.705,6.372,2.751,10.765
				C307.52,67.351,297.086,63.97,294.772,55.554z"/>
		</g>
	</g>
</g>
</svg>
